<svg width="101" height="32" viewBox="0 0 101 32" fill="none" xmlns="http://www.w3.org/2000/svg">
    <path d="M19.6667 21.7585V26.8589C19.6667 28.2773 19.1157 29.5625 18.2255 30.4932C17.3367 31.4238 16.1074 31.9999 14.7494 31.9999C12.0346 31.9999 9.83335 29.6985 9.83335 26.8603V21.7206H4.91734C3.55931 21.7206 2.32997 21.1446 1.44115 20.2139C0.550989 19.2833 0 17.998 0 16.5796C0 13.7414 2.20128 11.4399 4.916 11.4399H9.84005V16.6202C9.84005 18.04 10.391 19.3253 11.2812 20.256C12.17 21.1866 13.3994 21.7613 14.7574 21.7613H19.6654L19.6667 21.7585Z" fill="#0F53FF"/>
    <path d="M30.6397 15.42C30.6397 18.2596 28.4398 20.5596 25.7237 20.5596H15.8904C14.5323 20.5596 13.303 19.985 12.4142 19.0543C11.524 18.1237 10.973 16.8384 10.973 15.42C10.973 15.42 10.973 9.23756 10.973 6.4624L10.9784 6.46521C11.0159 6.81701 11.1151 7.15899 11.3564 7.53462C11.8967 8.37698 12.6903 9.03152 13.5631 9.45901C14.6382 9.98741 15.8193 10.2019 17.0245 10.2803C18.2874 10.363 19.5797 10.2958 20.8077 10.2817C20.9297 10.2817 21.0517 10.2803 21.1724 10.2803H25.7237C28.4398 10.2803 30.6397 12.5818 30.6397 15.42V15.42Z" fill="#0F53FF"/>
    <path d="M20.8062 5.13964V10.2821C19.5795 10.2961 18.2872 10.362 17.023 10.2807C15.8178 10.2022 14.638 9.98775 13.5615 9.45935C12.6888 9.03186 11.8952 8.37732 11.3549 7.53496C11.1136 7.15933 11.0144 6.81735 10.9768 6.46555C10.9326 6.05908 10.9715 5.64001 10.9715 5.14104C10.9728 2.30141 13.1754 0 15.8902 0C18.6049 0 20.8062 2.30141 20.8062 5.13964Z" fill="#B7CCFF"/>
    <path d="M36.4565 10.1006H38.4111L42.2895 19.1563L46.1518 10.1006H48.0903V21.6497H46.2778V13.7405L42.9089 21.6497H41.6527L38.2677 13.7405V21.6497H36.4552V10.1006H36.4565Z" fill="black"/>
    <path d="M53.8444 21.7999C51.3335 21.7999 49.4741 19.9386 49.4741 17.0639C49.4741 14.1892 51.2544 12.3447 53.8444 12.3447C56.4345 12.3447 58.1035 14.1556 58.1035 16.848C58.1035 17.1634 58.0875 17.4633 58.0405 17.7787H51.3496C51.4769 19.291 52.5092 20.2049 53.8444 20.2049C54.9571 20.2049 55.5765 19.64 55.9103 18.9252H57.8649C57.3716 20.5202 55.9894 21.7999 53.8444 21.7999ZM51.3643 16.2496H56.2119C56.1798 14.8368 55.1153 13.9397 53.764 13.9397C52.54 13.9397 51.5547 14.8031 51.3643 16.2496Z" fill="black"/>
    <path d="M68.9596 15.9172C68.9596 19.473 66.639 21.6497 63.0944 21.6497H59.4869V10.1006H63.0944C66.639 10.1006 68.9596 12.3431 68.9596 15.9158V15.9172ZM63.0944 20.1052C65.7006 20.1052 67.1002 18.5438 67.1002 15.9172C67.1002 13.2906 65.7019 11.6465 63.0944 11.6465H61.298V20.1052H63.0944Z" fill="black"/>
    <path d="M70.1207 10.0688C70.1207 9.38765 70.6288 8.85645 71.2816 8.85645C71.9345 8.85645 72.4265 9.38765 72.4265 10.0688C72.4265 10.75 71.9184 11.2812 71.2816 11.2812C70.6448 11.2812 70.1207 10.75 70.1207 10.0688ZM70.3593 12.495H72.1718V21.6502H70.3593V12.495Z" fill="black"/>
    <path d="M77.7984 21.7662C75.5891 21.7662 73.8892 20.5033 73.8892 18.4598H75.8277C75.9068 19.4073 76.5423 20.1712 77.7984 20.1712C79.0546 20.1712 79.7852 19.4563 79.7852 18.4766C79.7852 15.6847 73.9201 17.4955 73.9201 13.2417C73.9201 11.215 75.4617 9.95215 77.7193 9.95215C79.8335 9.95215 81.3269 11.1155 81.4864 13.0931H79.4836C79.4206 12.3124 78.769 11.5976 77.6241 11.564C76.5758 11.5303 75.7647 12.0629 75.7647 13.1758C75.7647 15.7842 81.6138 14.1555 81.6138 18.3771C81.6138 20.1053 80.2625 21.7676 77.7998 21.7676L77.7984 21.7662Z" fill="black"/>
    <path d="M87.1272 21.7999C84.6162 21.7999 82.7568 19.9386 82.7568 17.0639C82.7568 14.1892 84.5371 12.3447 87.1272 12.3447C89.7172 12.3447 91.3863 14.1556 91.3863 16.848C91.3863 17.1634 91.3702 17.4633 91.3233 17.7787H84.6323C84.7596 19.291 85.7919 20.2049 87.1272 20.2049C88.2399 20.2049 88.8592 19.64 89.193 18.9252H91.1476C90.6543 20.5202 89.2721 21.7999 87.1272 21.7999ZM84.6484 16.2496H89.496C89.4638 14.8368 88.3994 13.9397 87.0481 13.9397C85.8241 13.9397 84.8387 14.8031 84.6484 16.2496Z" fill="black"/>
    <path d="M96.5368 21.7999C94.0259 21.7999 92.1664 19.9386 92.1664 17.0639C92.1664 14.1892 93.9468 12.3447 96.5368 12.3447C99.1269 12.3447 100.796 14.1556 100.796 16.848C100.796 17.1634 100.78 17.4633 100.733 17.7787H94.042C94.1693 19.291 95.2016 20.2049 96.5368 20.2049C97.6495 20.2049 98.2689 19.64 98.6027 18.9252H100.557C100.064 20.5202 98.6818 21.7999 96.5368 21.7999ZM94.058 16.2496H98.9057C98.8735 14.8368 97.8091 13.9397 96.4577 13.9397C95.2338 13.9397 94.2484 14.8031 94.058 16.2496Z" fill="black"/>
</svg>